#!OML:ASF I:\Actors\actors\Patient Classification 2\Patient 1\Session 1\actor1.ASF
:FULLY-SPECIFIED
:DEGREES
335
root -0.483459 18.6437 5.76782 -1.79287 11.1492 -1.86235
lowerback 3.69243 4.71691 5.73295
upperback -2.47815 6.70898 1.95758
thorax -4.22 3.19236 -1.62294
lowerneck -10.1288 -5.40323 -0.395007
upperneck 10.5828 -6.17377 -8.55924
head 4.57283 -3.588 -2.99696
rclavicle 1.02921e-013 2.62396e-014
rhumerus 24.8803 7.65196 -48.1408
rradius 140.872
rwrist -13.1377
rhand -15.5481 -14.1167
rfingers 7.12502
rthumb 10.6361 -43.8276
lclavicle 1.02921e-013 2.62396e-014
lhumerus -47.8962 -4.32601 91.3719
lradius 52.0275
lwrist -2.74288
lhand -9.40152 -25.9087
lfingers 7.12502
lthumb 16.5599 3.40468
rfemur 0 0 0
rtibia 0
rfoot 0 0
rtoes 0
lfemur -6.14588 -6.64337 -12.7445
ltibia 24.6753
lfoot -18.9986 2.32164
ltoes -56.6984
336
root -0.483927 18.6441 5.76601 -1.80406 11.1357 -1.86884
lowerback 3.83338 4.7383 5.81888
upperback -2.55884 6.7555 1.8953
thorax -4.36439 3.20563 -1.7534
lowerneck -10.0917 -5.42428 -0.383959
upperneck 10.6539 -6.20674 -8.50883
head 4.5881 -3.6016 -2.98586
rclavicle -2.50469e-014 9.54166e-015
rhumerus 24.6621 7.65197 -48.2006
rradius 140.894
rwrist -13.0676
rhand -15.533 -14.1765
rfingers 7.12502
rthumb 10.6506 -43.8866
lclavicle -2.50469e-014 9.54166e-015
lhumerus -48.008 -4.45693 91.3328
lradius 52.0376
lwrist -2.75107
lhand -9.41905 -25.8745
lfingers 7.12502
lthumb 16.543 3.44033
rfemur 0 0 0
rtibia 0
rfoot 0 0
rtoes 0
lfemur -6.13445 -6.61455 -12.7363
ltibia 24.6606
lfoot -18.9654 2.34362
ltoes -56.7037
337
root -0.483903 18.6442 5.76482 -1.79389 11.1122 -1.82789
lowerback 3.74369 4.72661 5.69746
upperback -2.49958 6.72454 1.94134
thorax -4.27233 3.19885 -1.62724
lowerneck -10.105 -5.39679 -0.34172
upperneck 10.5887 -6.16954 -8.5946
head 4.56779 -3.58577 -3.01529
rclavicle 3.63776e-014 3.4191e-014
rhumerus 24.7942 7.67647 -48.1372
rradius 140.868
rwrist -13.0409
rhand -15.5484 -14.295
rfingers 7.12502
rthumb 10.6358 -44.0059
lclavicle 3.63776e-014 3.4191e-014
lhumerus -47.9216 -4.3344 91.3363
lradius 52.0229
lwrist -2.8061
lhand -9.42188 -25.8442
lfingers 7.12502
lthumb 16.5403 3.47088
rfemur 0 0 0
rtibia 0
rfoot 0 0
rtoes 0
lfemur -6.12871 -6.62986 -12.7855
ltibia 24.6429
lfoot -18.9715 2.36362
ltoes -56.6852
338
root -0.483614 18.6443 5.76333 -1.77952 11.0951 -1.77788
lowerback 3.6342 4.70523 5.55498
upperback -2.42081 6.67783 2.00335
thorax -4.15377 3.18606 -1.46974
lowerneck -10.1332 -5.36214 -0.352732
upperneck 10.5115 -6.11911 -8.64388
head 4.55001 -3.56319 -3.02451
rclavicle -7.95139e-014 -1.59028e-014
rhumerus 24.9899 7.72348 -48.0417
rradius 140.833
rwrist -12.9538
rhand -15.6986 -14.329
rfingers 7.12502
rthumb 10.4909 -44.0472
lclavicle -7.95139e-014 -1.59028e-014
lhumerus -47.8103 -4.17362 91.3551
lradius 52.0057
lwrist -2.82186
lhand -9.42524 -25.8509
lfingers 7.12502
lthumb 16.5371 3.46441
rfemur 0 0 0
rtibia 0
rfoot 0 0
rtoes 0
lfemur -6.12317 -6.6677 -12.8457
ltibia 24.6221
lfoot -18.9685 2.38426
ltoes -56.6788
339
root -0.483271 18.6444 5.76179 -1.78405 11.0838 -1.76174
lowerback 3.63666 4.70277 5.53262
upperback -2.39894 6.67278 2.01545
thorax -4.13646 3.18523 -1.44409
lowerneck -10.1676 -5.35855 -0.42149
upperneck 10.5268 -6.10804 -8.58853
head 4.56517 -3.55796 -2.99764
rclavicle -2.6339e-014 -7.95139e-016
rhumerus 25.0313 7.73432 -48.0165
rradius 140.825
rwrist -12.834
rhand -15.7777 -14.3671
rfingers 7.12502
rthumb 10.4146 -44.0892
lclavicle -2.6339e-014 -7.95139e-016
lhumerus -47.7703 -4.11414 91.3533
lradius 51.9738
lwrist -2.8363
lhand -9.42778 -25.9109
lfingers 7.12502
lthumb 16.5346 3.40458
rfemur 0 0 0
rtibia 0
rfoot 0 0
rtoes 0
lfemur -6.09923 -6.68009 -12.8669
ltibia 24.5982
lfoot -18.9491 2.40785
ltoes -56.6969
340
root -0.482806 18.6442 5.76019 -1.7929 11.0782 -1.76444
lowerback 3.65918 4.71117 5.55474
upperback -2.38714 6.68632 2.01795
thorax -4.13396 3.19152 -1.45571
lowerneck -10.183 -5.37384 -0.4389
upperneck 10.5229 -6.1254 -8.59124
head 4.56631 -3.56752 -2.99722
rclavicle -7.75757e-014 -1.27222e-014
rhumerus 25.0483 7.67578 -48.0199
rradius 140.815
rwrist -12.8912
rhand -15.6481 -14.3708
rfingers 7.12502
rthumb 10.5396 -44.0865
lclavicle -7.75757e-014 -1.27222e-014
lhumerus -47.7542 -4.12177 91.3665
lradius 51.9609
lwrist -2.85062
lhand -9.40801 -25.9708
lfingers 7.12502
lthumb 16.5537 3.34309
rfemur 0 0 0
rtibia 0
rfoot 0 0
rtoes 0
lfemur -6.08061 -6.64216 -12.8641
ltibia 24.5779
lfoot -18.9516 2.38695
ltoes -56.7432
341
root -0.482173 18.6442 5.75763 -1.79001 11.0816 -1.7545
lowerback 3.68619 4.71472 5.56516
upperback -2.38347 6.69332 2.0143
thorax -4.1434 3.19433 -1.4678
lowerneck -10.1714 -5.38405 -0.395421
upperneck 10.4868 -6.14279 -8.64101
head 4.54939 -3.5764 -3.01899
rclavicle 1.34677e-013 3.02153e-014
rhumerus 25.068 7.63209 -48.0111
rradius 140.808
rwrist -12.9973
rhand -15.5644 -14.38
rfingers 7.12502
rthumb 10.6204 -44.0916
lclavicle 1.34677e-013 3.02153e-014
lhumerus -47.7681 -4.16472 91.3887
lradius 51.9853
lwrist -2.82445
lhand -9.40901 -26.0081
lfingers 7.12502
lthumb 16.5527 3.30588
rfemur 0 0 0
rtibia 0
rfoot 0 0
rtoes 0
lfemur -6.08171 -6.63191 -12.8752
ltibia 24.5634
lfoot -18.955 2.37548
ltoes -56.7363
342
root -0.482214 18.6449 5.75432 -1.75767 11.0909 -1.73833
lowerback 3.79181 4.72906 5.64475
upperback -2.44922 6.72582 1.94534
thorax -4.25292 3.2024 -1.59662
lowerneck -10.172 -5.41424 -0.379908
upperneck 10.5526 -6.18675 -8.60033
head 4.56837 -3.59645 -3.01346
rclavicle -1.51225e-013 -1.11319e-014
rhumerus 24.9431 7.60863 -48.0615
rradius 140.826
rwrist -13.0009
rhand -15.5602 -14.3735
rfingers 7.12502
rthumb 10.6244 -44.0849
lclavicle -1.51225e-013 -1.11319e-014
lhumerus -47.8586 -4.3173 91.369
lradius 52.0194
lwrist -2.79291
lhand -9.43661 -26.0098
lfingers 7.12502
lthumb 16.5261 3.30646
rfemur 0 0 0
rtibia 0
rfoot 0 0
rtoes 0
lfemur -6.12379 -6.6545 -12.8898
ltibia 24.5531
lfoot -18.9341 2.4195
ltoes -56.6972
343
root -0.483052 18.6458 5.75152 -1.71465 11.1051 -1.7257
lowerback 3.90183 4.74638 5.72574
upperback -2.52316 6.7636 1.8817
thorax -4.37365 3.21245 -1.72207
lowerneck -10.1879 -5.45529 -0.42644
upperneck 10.6527 -6.23605 -8.53431
head 4.60332 -3.62098 -2.99224
rclavicle -1.25234e-014 -1.43125e-014
rhumerus 24.7985 7.55111 -48.1069
rradius 140.828
rwrist -12.9687
rhand -15.4646 -14.2602
rfingers 7.12502
rthumb 10.7167 -43.9669
lclavicle -1.25234e-014 -1.43125e-014
lhumerus -47.9471 -4.48587 91.3672
lradius 52.041
lwrist -2.76606
lhand -9.46019 -25.9705
lfingers 7.12502
lthumb 16.5034 3.3476
rfemur 0 0 0
rtibia 0
rfoot 0 0
rtoes 0
lfemur -6.18075 -6.66873 -12.8976
ltibia 24.547
lfoot -18.9329 2.42204
ltoes -56.6821
